<svg width="30" height="28" viewBox="0 0 30 28" fill="none" xmlns="http://www.w3.org/2000/svg">
<path d="M24.7228 11.4092V25.3857H19.4456V19.341C19.4456 18.811 19.0161 18.3815 18.4862 18.3815H11.7377C11.2078 18.3815 10.7783 18.811 10.7783 19.341V25.3857H5.53308V11.4092H3.61414V26.3452C3.61414 26.8752 4.04369 27.3047 4.57361 27.3047H11.7378C12.2678 27.3047 12.6973 26.8751 12.6973 26.3452V20.3005H17.5267V26.3453C17.5267 26.8752 17.9562 27.3047 18.4862 27.3047H25.6824C26.2123 27.3047 26.6418 26.8752 26.6418 26.3453V11.4092H24.7228Z" fill="white"/>
<path d="M29.6962 13.9711L15.7836 0.954062C15.4174 0.610879 14.8481 0.608652 14.4787 0.947968L0.310249 13.965C-0.079927 14.3236 -0.105532 14.9303 0.253003 15.3205C0.442026 15.5268 0.700425 15.631 0.959819 15.631C1.19167 15.631 1.42453 15.5472 1.60874 15.378L15.1222 2.96289L28.3852 15.3723C28.7728 15.7346 29.3792 15.7139 29.7412 15.3272C30.103 14.9402 30.0831 14.3331 29.6962 13.9711Z" fill="white"/>
</svg>
