<svg width="30" height="22" viewBox="0 0 30 22" fill="none" xmlns="http://www.w3.org/2000/svg">
<path d="M28.8281 9.82812H1.17188C0.524648 9.82812 0 10.3528 0 11C0 11.6472 0.524648 12.1719 1.17188 12.1719H28.8281C29.4754 12.1719 30 11.6472 30 11C30 10.3528 29.4754 9.82812 28.8281 9.82812ZM28.8281 0.453125H1.17188C0.524648 0.453125 0 0.977773 0 1.625C0 2.27223 0.524648 2.79688 1.17188 2.79688H28.8281C29.4754 2.79688 30 2.27223 30 1.625C30 0.977773 29.4754 0.453125 28.8281 0.453125ZM28.8281 19.2031H1.17188C0.524648 19.2031 0 19.7278 0 20.375C0 21.0222 0.524648 21.5469 1.17188 21.5469H28.8281C29.4754 21.5469 30 21.0222 30 20.375C30 19.7278 29.4754 19.2031 28.8281 19.2031Z" fill="white"/>
</svg>
