<svg width="30" height="28" viewBox="0 0 30 28" fill="none" xmlns="http://www.w3.org/2000/svg">
<path d="M11.6063 21.8055H4.75112C4.37626 21.8055 4.07239 22.1094 4.07239 22.4842C4.07239 22.8591 4.37626 23.163 4.75112 23.163H11.6063C11.9812 23.163 12.2851 22.8591 12.2851 22.4842C12.2851 22.1094 11.9812 21.8055 11.6063 21.8055ZM21.8552 21.8055H15C14.6251 21.8055 14.3213 22.1094 14.3213 22.4842C14.3213 22.8591 14.6251 23.163 15 23.163H21.8552C22.23 23.163 22.5339 22.8591 22.5339 22.4842C22.5339 22.1094 22.23 21.8055 21.8552 21.8055ZM21.8552 4.83716H4.75112C4.37626 4.83716 4.07239 5.14103 4.07239 5.51589C4.07239 5.89076 4.37626 6.19462 4.75112 6.19462H21.8552C22.23 6.19462 22.5339 5.89076 22.5339 5.51589C22.5339 5.14103 22.23 4.83716 21.8552 4.83716ZM21.8552 8.23082H15C14.6251 8.23082 14.3213 8.53469 14.3213 8.90956C14.3213 9.28442 14.6251 9.58829 15 9.58829H21.8552C22.23 9.58829 22.5339 9.28442 22.5339 8.90956C22.5339 8.53469 22.23 8.23082 21.8552 8.23082ZM21.8552 11.6245H15C14.6251 11.6245 14.3213 11.9284 14.3213 12.3032C14.3213 12.6781 14.6251 12.982 15 12.982H21.8552C22.23 12.982 22.5339 12.6781 22.5339 12.3032C22.5339 11.9284 22.23 11.6245 21.8552 11.6245ZM21.8552 15.0182H15C14.6251 15.0182 14.3213 15.322 14.3213 15.6969C14.3213 16.0718 14.6251 16.3756 15 16.3756H21.8552C22.23 16.3756 22.5339 16.0718 22.5339 15.6969C22.5339 15.322 22.23 15.0182 21.8552 15.0182ZM21.8552 18.4118H15C14.6251 18.4118 14.3213 18.7157 14.3213 19.0906C14.3213 19.4654 14.6251 19.7693 15 19.7693H21.8552C22.23 19.7693 22.5339 19.4654 22.5339 19.0906C22.5339 18.7157 22.23 18.4118 21.8552 18.4118ZM11.6063 18.4118H4.75112C4.37626 18.4118 4.07239 18.7157 4.07239 19.0906C4.07239 19.4654 4.37626 19.7693 4.75112 19.7693H11.6063C11.9812 19.7693 12.2851 19.4654 12.2851 19.0906C12.2851 18.7157 11.9812 18.4118 11.6063 18.4118ZM11.6063 8.23082H4.75112C4.37626 8.23082 4.07239 8.53469 4.07239 8.90956V15.7648C4.07239 16.1396 4.37626 16.4435 4.75112 16.4435H11.6063C11.9812 16.4435 12.2851 16.1396 12.2851 15.7648V8.90956C12.2851 8.53469 11.9812 8.23082 11.6063 8.23082ZM10.9276 15.086H5.42985V9.58829H10.9276V15.086Z" fill="white"/>
<path d="M28.6425 4.15831H26.6063V2.12211C26.6063 1.37361 25.9974 0.764648 25.2489 0.764648H1.35747C0.608959 0.764648 0 1.37361 0 2.12211V23.8416C0 25.7128 1.5224 27.2352 3.39367 27.2352H26.6063C28.4776 27.2352 30 25.7128 30 23.8416V5.51578C30 4.76727 29.391 4.15831 28.6425 4.15831ZM28.6425 23.8416C28.6425 24.9643 27.7291 25.8778 26.6063 25.8778H3.39367C2.27091 25.8778 1.35747 24.9643 1.35747 23.8416V2.12211H25.2489V22.8235C25.2489 23.7591 26.0101 24.5203 26.9457 24.5203C27.3205 24.5203 27.6244 24.2164 27.6244 23.8416C27.6244 23.4667 27.3205 23.1628 26.9457 23.1628C26.7586 23.1628 26.6063 23.0106 26.6063 22.8235V5.51578H28.6425V23.8416Z" fill="white"/>
</svg>
