<svg width="24" height="30" viewBox="0 0 22 22" fill="none" xmlns="http://www.w3.org/2000/svg">
<path d="M8.5 0.375C4.01625 0.375 0.375 4.01625 0.375 8.5C0.375 12.9837 4.01625 16.625 8.5 16.625C12.9837 16.625 16.625 12.9837 16.625 8.5C16.625 4.01625 12.9837 0.375 8.5 0.375ZM8.5 1.625C12.295 1.625 15.375 4.705 15.375 8.5C15.375 12.295 12.295 15.375 8.5 15.375C4.705 15.375 1.625 12.295 1.625 8.5C1.625 4.705 4.705 1.625 8.5 1.625Z" fill="white"/>
<path d="M21.4425 20.5575L14.2438 13.36C14.1259 13.2462 13.968 13.1832 13.8041 13.1846C13.6403 13.186 13.4835 13.2517 13.3676 13.3676C13.2517 13.4835 13.186 13.6403 13.1846 13.8041C13.1832 13.968 13.2462 14.1259 13.36 14.2438L20.5575 21.4425C20.6775 21.546 20.8321 21.6002 20.9904 21.5943C21.1487 21.5885 21.299 21.523 21.411 21.411C21.523 21.299 21.5885 21.1487 21.5943 20.9904C21.6002 20.8321 21.546 20.6775 21.4425 20.5575Z" fill="white"/>
</svg>
