<svg width="24" height="30" viewBox="0 0 24 30" fill="none" xmlns="http://www.w3.org/2000/svg">
<path d="M22.8993 2.74992H21.9478L20.4436 0.215801C20.4046 0.150018 20.3491 0.0955256 20.2826 0.0576868C20.2162 0.019848 20.141 -3.31695e-05 20.0645 4.15404e-08H3.93542C3.85895 -9.99014e-06 3.78379 0.019881 3.71733 0.0577175C3.65087 0.0955541 3.5954 0.150034 3.55638 0.215801L2.05228 2.74986H1.10071C0.983805 2.74986 0.871686 2.7963 0.78902 2.87897C0.706353 2.96164 0.659912 3.07376 0.659912 3.19066V6.00117C0.659912 6.11808 0.706353 6.2302 0.78902 6.31287C0.871686 6.39553 0.983805 6.44197 1.10071 6.44197H1.91036L2.37185 10.4386H1.83272C1.77057 10.4386 1.70912 10.4517 1.65241 10.4772C1.5957 10.5026 1.545 10.5397 1.50366 10.5861C1.46232 10.6325 1.43125 10.6872 1.41249 10.7464C1.39373 10.8057 1.3877 10.8682 1.39479 10.93L2.75124 22.6767C2.76365 22.7841 2.81512 22.8832 2.89587 22.9552C2.97662 23.0272 3.08101 23.0669 3.18917 23.067H3.83013L4.58569 29.6096C4.5981 29.7171 4.64957 29.8162 4.73032 29.8882C4.81107 29.9602 4.91546 29.9999 5.02362 29.9999H7.69743C7.81434 29.9999 7.92646 29.9535 8.00912 29.8708C8.09179 29.7882 8.13823 29.676 8.13823 29.5591C8.13823 29.4422 8.09179 29.3301 8.00912 29.2474C7.92646 29.1648 7.81434 29.1183 7.69743 29.1183H5.41649L4.71771 23.067H19.2825L18.5837 29.1183H9.46058C9.34367 29.1183 9.23155 29.1648 9.14888 29.2474C9.06622 29.3301 9.01978 29.4422 9.01978 29.5591C9.01978 29.676 9.06622 29.7882 9.14888 29.8708C9.23155 29.9535 9.34367 29.9999 9.46058 29.9999H18.9764C19.0846 30 19.189 29.9602 19.2697 29.8882C19.3505 29.8163 19.4019 29.7171 19.4143 29.6096L20.1698 23.067H20.8108C20.9189 23.067 21.0233 23.0272 21.1041 22.9553C21.1848 22.8833 21.2363 22.7841 21.2486 22.6767L22.6051 10.93C22.6122 10.8682 22.6062 10.8057 22.5874 10.7464C22.5687 10.6872 22.5376 10.6325 22.4962 10.5861C22.4549 10.5397 22.4042 10.5026 22.3475 10.4772C22.2908 10.4518 22.2293 10.4386 22.1672 10.4386H21.628L22.0896 6.44197H22.8993C22.9572 6.44198 23.0145 6.43058 23.068 6.40843C23.1215 6.38628 23.1701 6.35382 23.211 6.31288C23.2519 6.27195 23.2844 6.22335 23.3065 6.16987C23.3287 6.11638 23.3401 6.05906 23.3401 6.00117V3.19072C23.3401 3.13284 23.3287 3.07551 23.3066 3.02203C23.2844 2.96855 23.252 2.91995 23.211 2.87902C23.1701 2.83808 23.1215 2.80561 23.068 2.78346C23.0145 2.76131 22.9572 2.74991 22.8993 2.74992ZM21.6726 11.3203L20.4179 22.1854H3.58198L2.32731 11.3203H16.4394C16.4973 11.3203 16.5546 11.3089 16.6081 11.2868C16.6616 11.2646 16.7102 11.2322 16.7511 11.1912C16.792 11.1503 16.8245 11.1017 16.8466 11.0482C16.8688 10.9947 16.8802 10.9374 16.8802 10.8795C16.8802 10.8216 16.8688 10.7643 16.8466 10.7108C16.8245 10.6573 16.792 10.6087 16.7511 10.5678C16.7102 10.5269 16.6616 10.4944 16.6081 10.4722C16.5546 10.4501 16.4973 10.4387 16.4394 10.4387H3.25931L2.79782 6.44209H21.2021L20.7406 10.4387H18.2026C18.1447 10.4387 18.0874 10.4501 18.0339 10.4722C17.9804 10.4944 17.9318 10.5269 17.8909 10.5678C17.8499 10.6087 17.8175 10.6573 17.7953 10.7108C17.7732 10.7643 17.7618 10.8216 17.7618 10.8795C17.7618 10.9374 17.7732 10.9947 17.7953 11.0482C17.8175 11.1017 17.8499 11.1503 17.8909 11.1912C17.9318 11.2322 17.9804 11.2646 18.0339 11.2868C18.0874 11.3089 18.1447 11.3203 18.2026 11.3203H21.6726ZM1.54151 5.56037V3.63152H5.03317C5.15008 3.63152 5.2622 3.58508 5.34487 3.50242C5.42753 3.41975 5.47397 3.30763 5.47397 3.19072C5.47397 3.07382 5.42753 2.9617 5.34487 2.87903C5.2622 2.79636 5.15008 2.74992 5.03317 2.74992H3.07737L4.18632 0.88166H19.8136L20.9224 2.74992H6.79643C6.67953 2.74992 6.56741 2.79636 6.48474 2.87903C6.40208 2.9617 6.35563 3.07382 6.35563 3.19072C6.35563 3.30763 6.40208 3.41975 6.48474 3.50242C6.56741 3.58508 6.67953 3.63152 6.79643 3.63152H22.4584V5.56037H1.54151Z" fill="white"/>
<path d="M12.4061 13.0464C12.3872 13.0422 12.368 13.0393 12.3487 13.0377C12.2332 13.0213 12.1167 13.013 12 13.0127C10.3586 13.0127 9.02319 14.596 9.02319 16.5421C9.02319 18.4878 10.3579 20.0708 11.9988 20.0716L11.9996 20.0717L12.0003 20.0716C13.6416 20.0714 14.9768 18.4882 14.9768 16.5421C14.9768 14.7594 13.856 13.2821 12.4061 13.0464ZM11.7705 19.1738C10.7228 19.0287 9.90491 17.904 9.90491 16.5421C9.90491 15.3095 10.5748 14.2709 11.4787 13.9773C11.1173 14.7832 10.9712 15.9275 11.8133 17.0216C12.4281 17.8205 12.0038 18.7712 11.7705 19.1738ZM12.8259 18.9752C12.8451 18.9211 12.8637 18.8658 12.8809 18.8084C13.141 17.9393 13.0134 17.1356 12.5119 16.484C11.7009 15.4303 12.2088 14.3949 12.4905 13.9684C13.4098 14.2483 14.0951 15.2957 14.0951 16.5422C14.0951 17.6316 13.5716 18.5693 12.8259 18.9752Z" fill="white"/>
</svg>
